<svg width="84" height="48" viewBox="0 0 84 48" fill="none" xmlns="http://www.w3.org/2000/svg">
<g clip-path="url(#clip0_11229_197)">
<path d="M33.7857 13.1929C33.3799 9.04186 29.6804 6.00941 25.5304 6.42616C21.3959 6.84137 18.3771 10.5242 18.7814 14.6598C19.1857 18.7954 22.8606 21.8236 26.9973 21.4307C31.1494 21.0357 34.1915 17.3439 33.7857 13.1929ZM28.1665 8.1664C28.2586 8.16615 28.3273 8.18486 28.4129 8.20814L28.4315 8.21318C28.4649 8.38119 28.4314 8.45927 28.3435 8.60227C28.1897 8.85259 28.0185 9.09226 27.8473 9.33196C27.5451 9.75507 27.2429 10.1783 27.0358 10.6603C26.5868 11.7055 26.6914 12.9246 26.7972 14.1564C26.8897 15.2345 26.983 16.3224 26.7068 17.312C26.3745 18.5025 25.5403 19.2813 24.4958 19.862C24.4379 19.8717 24.374 19.8668 24.3126 19.8621C24.2997 19.8611 24.287 19.8601 24.2744 19.8593C24.2665 19.8587 24.2586 19.8583 24.2508 19.8579L24.2408 19.8388C24.1812 19.7256 24.1777 19.7187 24.2207 19.5899C24.2767 19.4229 24.388 19.2518 24.4928 19.0907C24.5329 19.0292 24.572 18.9691 24.6067 18.9112C24.9698 18.3063 25.3258 17.6528 25.4371 16.9468C25.5762 16.0652 25.5021 15.158 25.4281 14.2507C25.3341 13.0996 25.2401 11.948 25.5818 10.8492C26.0014 9.49908 26.9839 8.79485 28.1665 8.1664Z" fill="#0B0803"/>
<path d="M51.5341 35.0922C51.0634 31.0627 47.4156 28.1774 43.386 28.6466C39.3546 29.1158 36.4672 32.7651 36.938 36.7967C37.4088 40.8284 41.0594 43.7143 45.0906 43.2423C49.1201 42.7703 52.0047 39.1217 51.5341 35.0922ZM43.3973 30.3357C44.3721 30.2636 45.2839 30.501 46.0703 31.0858C47.3428 32.0319 47.992 33.5957 48.207 35.1265C48.4346 36.7421 48.4121 38.9859 47.3596 40.3389C46.7853 41.0763 46.0592 41.376 45.1599 41.486C44.2019 41.5784 43.2432 41.3214 42.4603 40.7632C41.2225 39.8704 40.5872 38.4032 40.3567 36.9333C40.0941 35.2589 40.1038 32.9157 41.1886 31.5031C41.7658 30.7517 42.4869 30.4527 43.3973 30.3357Z" fill="#0B0803"/>
<path d="M9.67462 0.367412C10.982 0.195978 12.4618 0.330439 13.7337 0.651248C14.5073 0.846352 15.2792 1.1117 16.0701 1.22297C16.5248 1.28691 17.0018 1.2818 17.4607 1.28985C17.535 2.56307 17.7806 5.61401 17.6335 6.73547C17.3992 6.78092 17.2192 6.76818 16.9836 6.7361C16.7423 6.4571 16.6288 5.83264 16.4838 5.47087C15.9521 4.14414 14.9006 3.12471 13.5822 2.58394C11.9299 1.90626 9.95726 1.99337 8.32878 2.69683C6.6185 3.43565 5.22504 4.91434 4.54589 6.64633C3.49389 9.32905 3.50125 12.7702 4.68154 15.411C5.49928 17.2405 6.95402 18.8499 8.85758 19.5642C10.6748 20.2462 12.6496 20.0446 14.3902 19.2469C15.1675 18.8504 15.8862 18.2608 16.3485 17.5135C16.6101 17.0907 16.8024 16.287 17.2173 16.0141L17.3328 16.0599C17.7787 16.6232 17.9446 18.3847 18.0911 19.1425C16.4135 20.6211 14.3895 21.6016 12.1648 21.8943C9.25325 22.2767 6.21464 21.6891 3.86197 19.8736C1.72038 18.221 0.419565 15.6242 0.0979864 12.9632C-0.275765 9.87087 0.40703 6.75004 2.36431 4.28876C4.16786 2.02083 6.82068 0.694874 9.67462 0.367412Z" fill="#0B0803"/>
<path d="M64.3528 7.71232C63.5734 7.51827 62.6301 7.4135 61.831 7.51259C59.9661 7.69579 58.3715 8.41479 57.16 9.87709C55.8175 11.5152 55.1803 13.619 55.3868 15.7268C55.5724 17.5236 56.3987 19.3101 57.8323 20.4467C59.338 21.6415 61.4655 21.9783 63.3339 21.757C64.9928 21.5609 66.4635 20.8445 67.4922 19.5052C67.9628 18.8932 68.3046 18.2014 68.5742 17.4809C68.5412 17.4497 68.5083 17.4174 68.4752 17.3849C68.3163 17.2285 68.1522 17.0672 67.9383 17.0023C67.9194 17.0109 67.9031 17.0177 67.8888 17.0238C67.8237 17.0512 67.7975 17.0623 67.7436 17.1441C66.8564 18.4504 65.8396 19.3151 64.2512 19.612C63.0131 19.8435 61.7827 19.6305 60.7441 18.9017C59.9178 18.3219 59.2658 17.4659 58.8841 16.5345C60.7834 15.4084 62.8478 14.2686 65.0328 13.821C65.4653 13.7324 65.9062 13.6826 66.3458 13.6331C66.8081 13.5809 67.2688 13.529 67.7164 13.4322C68.0168 13.3673 68.2325 13.3062 68.3347 12.9878C68.5903 12.189 68.1869 10.8838 67.7843 10.1955C67.0483 8.93575 65.7555 8.06135 64.3528 7.71232ZM62.4207 8.9833C62.7757 8.9854 63.156 9.01055 63.4977 9.10495C64.0762 9.26447 64.6 9.6072 64.8823 10.149C65.0776 10.524 65.2303 11.1251 65.0769 11.5353C64.948 11.8798 64.6694 12.1151 64.3612 12.2972C63.9766 12.5238 63.516 12.6697 63.0723 12.81C62.9215 12.8578 62.7726 12.9049 62.6294 12.9544C61.8541 13.2222 61.0901 13.5143 60.3513 13.8717C60.1824 13.9468 59.9689 14.0817 59.7414 14.2254C59.3142 14.4952 58.8379 14.796 58.5158 14.7908C58.3435 14.6466 58.2994 14.527 58.2812 14.3104C58.1615 12.8738 58.7399 11.2396 59.6692 10.1535C60.3498 9.35853 61.4179 9.06461 62.4207 8.9833Z" fill="#0B0803"/>
<path d="M78.3204 7.5752C77.7685 7.49957 77.2097 7.47849 76.6537 7.51225C74.7614 7.6666 73.1612 8.35682 71.9231 9.82997C70.561 11.4613 69.907 13.5694 70.1065 15.6855C70.2732 17.4382 71.0919 19.2307 72.4722 20.3561C73.9582 21.568 76.1753 21.9825 78.0458 21.7703C79.7105 21.582 81.2063 20.7997 82.2455 19.4783C82.7239 18.8649 83.0986 18.177 83.3541 17.442C83.3218 17.414 83.2881 17.3833 83.2531 17.3514C83.0799 17.1935 82.8762 17.0078 82.6594 16.9905C81.7687 18.3321 80.7021 19.2761 79.0858 19.602C77.868 19.8477 76.6859 19.6685 75.6403 18.9745C74.7432 18.3789 74.0906 17.5115 73.6255 16.5505C75.6788 15.1536 78.2049 14.0836 80.6461 13.632C80.9488 13.5759 81.2564 13.5521 81.564 13.5284C81.8185 13.5087 82.0729 13.489 82.3247 13.4511C82.6525 13.4017 82.9851 13.3267 83.0586 12.952C83.2652 11.8954 82.8485 10.6244 82.2245 9.77486C81.2834 8.49316 79.8736 7.79132 78.3204 7.5752ZM76.5171 9.03464C77.1536 8.98422 77.7734 8.95285 78.3868 9.17729C78.9751 9.39236 79.4493 9.81667 79.7048 10.3917C79.8736 10.7702 79.9471 11.194 79.7874 11.5884C79.6964 11.8111 79.5297 12.0133 79.3365 12.1548C78.8739 12.4927 77.7317 12.8914 76.7381 13.2382C76.2484 13.4091 75.7948 13.5675 75.4764 13.6997C74.9657 13.9274 74.4735 14.2036 73.9823 14.4792C73.7098 14.6322 73.4375 14.785 73.1626 14.9292C72.9322 13.5221 73.0765 12.088 73.8426 10.8546C74.4757 9.83641 75.3679 9.29789 76.5171 9.03464Z" fill="#0B0803"/>
<path d="M29.3594 24.456C30.8654 24.4476 35.0965 24.2599 36.2378 24.561C36.3334 24.692 36.3244 24.6941 36.3127 24.8573C36.0488 25.302 35.4858 25.4806 35.0953 25.7992C34.8698 25.9827 34.6663 26.2446 34.5983 26.5317C34.3463 27.5948 34.4457 28.8238 34.4448 29.9156L34.4149 34.5264C34.407 35.6265 34.4413 36.7512 34.3124 37.8437C34.128 39.4082 33.4375 40.862 32.1735 41.8361C30.5979 43.0511 28.3984 43.3215 26.4727 43.0602C24.7861 42.8319 23.1406 42.1015 22.0918 40.717C21.1404 39.4614 20.8994 37.995 21.1013 36.4599C21.1546 36.1889 21.2225 35.927 21.3197 35.6678C21.6786 34.7112 22.3807 33.9248 23.3277 33.5186C24.3278 33.09 25.589 33.0585 26.594 33.4913C27.083 33.7014 27.3912 34.0635 27.5709 34.5642C27.681 34.8702 27.717 35.1321 27.5766 35.4297C27.1713 35.8128 26.2596 35.2995 25.6932 35.4585C25.1705 35.6048 24.7708 35.9711 24.5206 36.4459C24.0861 37.2701 24.0758 38.3472 24.3864 39.2142C24.6632 39.9873 25.2905 40.6113 26.0294 40.953C26.9066 41.3585 28.14 41.4601 29.0565 41.119C29.7664 40.855 30.2879 40.2905 30.5742 39.5972C30.8209 38.9999 30.9366 38.3129 30.9947 37.6721C31.1257 36.2281 31.2881 27.5065 30.97 26.5632C30.6344 25.5681 29.4903 25.5387 29.2281 24.9329C29.2282 24.7866 29.2314 24.685 29.302 24.5569C29.3206 24.5225 29.3403 24.4896 29.3594 24.456Z" fill="#0B0803"/>
<path d="M60.4768 40.6134C61.119 39.0237 61.6736 37.3857 62.2654 35.7757C62.7269 34.5222 63.2969 33.2252 63.5798 31.9205C63.6401 31.6425 63.6667 31.3673 63.5889 31.09C63.3515 30.2426 62.2584 30.3105 62.0112 29.6558C62.0455 29.5122 62.0252 29.4499 62.1624 29.3616C62.4152 29.1999 66.8783 29.1831 67.4252 29.2524C67.6073 29.2755 67.7368 29.3161 67.8566 29.4625C67.8692 29.7769 67.7929 29.9205 67.5099 30.0808C67.0561 30.3372 66.4784 30.4681 66.138 30.8897C65.6023 31.5536 63.5847 37.2344 63.0868 38.5258L61.4229 42.8425C61.0041 43.9265 60.612 45.1051 59.9887 46.0912C59.6112 46.6878 59.1028 47.2656 58.4865 47.6206C57.5873 48.1374 56.4473 48.2327 55.4535 47.9533C54.6811 47.7355 53.9745 47.2572 53.6047 46.5296C53.312 45.9539 53.2399 45.1878 53.4549 44.5743C53.6152 44.117 53.9857 43.7381 54.4269 43.5414C54.7126 43.4146 55.1797 43.304 55.4752 43.4643C56.1783 43.8467 55.7203 45.1093 55.99 45.783C56.081 46.0092 56.214 46.1689 56.4451 46.262C56.8212 46.4133 57.4739 46.206 57.8128 46.0414C58.9585 45.4826 59.4396 43.6814 59.8206 42.5693C59.3395 42.5784 58.7835 42.6373 58.3094 42.5546C58.2358 42.542 58.1434 42.5224 58.0776 42.4839C57.9207 42.3929 57.8198 42.2276 57.7386 42.0693C57.3647 41.3403 57.1111 40.4929 56.8191 39.7254L55.0004 34.9395C54.6426 33.999 54.3176 33.0186 53.8785 32.1138C53.5508 31.4394 53.1138 30.7503 52.4401 30.3778C52.1061 30.1936 51.6663 30.1957 51.4401 29.861C51.4009 29.6327 51.4415 29.494 51.5122 29.2755C52.7181 29.2265 57.5663 29.1004 58.4578 29.3483C58.5068 29.5185 58.5153 29.7538 58.448 29.9212C58.3416 30.1859 57.8296 30.2671 57.5943 30.3617C57.3401 30.4639 57.1202 30.618 57.0215 30.8848C56.913 31.1796 57.0579 31.6537 57.1427 31.9528C57.5117 33.2602 58.107 34.5544 58.5972 35.8268C59.21 37.4165 59.7625 39.0664 60.4768 40.6134Z" fill="#0B0803"/>
<path d="M51.9412 1.55478C53.012 1.49897 54.0281 1.63574 54.963 2.19612C55.6458 2.6051 56.2243 3.22059 56.3965 4.01683C56.4904 4.44906 56.461 4.90678 56.2096 5.28221C55.9364 5.68986 55.3846 6.00758 54.9 6.0683C54.6087 6.10472 54.2669 6.06501 54.0337 5.87656C53.4924 5.43915 53.7445 4.66118 53.6416 4.06271C53.5855 3.74057 53.4182 3.46948 53.1394 3.29489C52.7178 3.03039 52.0589 2.94299 51.5806 3.0757C51.1625 3.19153 50.8613 3.4872 50.6688 3.86837C50.056 5.07842 50.3949 6.65999 50.7738 7.8837C52.0582 7.91556 53.3481 7.88965 54.6332 7.88846C54.6367 8.43365 54.6269 8.96973 54.5856 9.51344C53.3446 9.51211 52.1009 9.49327 50.8613 9.54061C50.7822 10.8157 50.813 12.1113 50.8053 13.3893C50.7934 15.3021 50.605 17.4137 51.0434 19.275C51.11 19.4474 51.1835 19.6098 51.2731 19.772C51.6597 20.4754 51.8978 20.4001 52.5855 20.6268C52.8201 20.7038 52.9559 20.799 53.0582 21.0175C53.0491 21.2024 53.0204 21.2724 52.9111 21.4216C52.8502 21.4601 52.8257 21.4825 52.7459 21.4972C52.4966 21.5448 46.509 21.5189 46.17 21.4629C45.9375 21.4237 45.7736 21.3726 45.6273 21.1751C45.7239 20.6099 46.3528 20.6499 46.731 20.2843C47.1645 19.8656 47.3822 19.3041 47.5027 18.7242C47.7646 17.4616 47.6638 16.0312 47.6589 14.742L47.6344 9.5236L45.1854 9.51449C45.1357 8.97554 45.1322 8.43147 45.1182 7.89063L47.5566 7.88937C47.4369 7.52458 47.3178 7.14565 47.2653 6.76433C47.1098 5.63748 47.3717 4.49227 48.0643 3.57922C48.9852 2.36552 50.4664 1.74547 51.9412 1.55478Z" fill="#0B0803"/>
<path d="M41.8066 1.55625C42.7932 1.47319 43.7408 1.54511 44.6259 2.02986C45.3332 2.41727 45.9376 3.05629 46.1547 3.84715C46.2891 4.33722 46.3039 4.95804 46.0265 5.40455C45.8305 5.72074 45.5027 5.90576 45.1428 5.9732C44.815 6.03468 44.3815 6.03391 44.1077 5.81423C43.5895 5.39832 43.9361 4.59864 43.8206 4.04778C43.7513 3.71605 43.4837 3.43467 43.1931 3.27556C42.7358 3.02478 42.0768 2.99432 41.5822 3.14306C41.1716 3.26652 40.8614 3.53509 40.673 3.91977C40.1269 5.03472 40.5411 6.74297 40.9158 7.85253C42.1455 7.92543 43.4025 7.86877 44.6364 7.87515C44.6672 8.4253 44.6392 8.96432 44.6063 9.51385C43.3542 9.51105 42.1013 9.51553 40.849 9.52716C40.7914 11.093 40.7683 12.6598 40.7795 14.2267C40.7752 15.8408 40.6145 17.6542 41.088 19.2111C41.6081 20.3509 42.6882 20.5431 42.9431 21.152C42.9039 21.2633 42.92 21.2822 42.81 21.3474C42.4151 21.5834 36.4187 21.5371 35.8827 21.4097C35.8621 21.3368 35.8345 21.2528 35.8319 21.1772C35.8157 20.7017 36.5653 20.502 36.8533 20.2178C37.2543 19.822 37.4526 19.0887 37.5457 18.5426C37.7549 17.3154 37.6885 15.9627 37.6873 14.7193L37.6767 9.52436L35.2343 9.51399C35.1973 8.97189 35.1978 8.43273 35.2001 7.88957C35.9792 7.89812 36.7583 7.8972 37.5373 7.88691C37.4167 7.49012 37.2896 7.09172 37.2284 6.68064C37.0619 5.56261 37.3049 4.45809 37.9885 3.54924C38.9068 2.32819 40.3363 1.76248 41.8066 1.55625Z" fill="#0B0803"/>
</g>
<defs>
<clipPath id="logo">
<rect width="83.3545" height="47.8147" fill="white" transform="translate(0 0.29248)"/>
</clipPath>
</defs>
</svg>
