<svg width="24" height="24" viewBox="0 0 24 24" fill="none" xmlns="http://www.w3.org/2000/svg">
<path d="M23.9421 10.8325C23.2961 4.22472 17.4071 -0.602438 10.801 0.0609637C4.21956 0.721903 -0.585796 6.58434 0.0578067 13.1676C0.701409 19.7507 6.5512 24.5711 13.1362 23.9457C19.7455 23.317 24.5881 17.4403 23.9421 10.8325ZM14.9973 2.83114C15.1438 2.83073 15.2532 2.86052 15.3895 2.89757L15.419 2.9056C15.4723 3.17304 15.4189 3.29733 15.279 3.52497C15.0342 3.92344 14.7617 4.30495 14.4891 4.68652C14.008 5.36003 13.527 6.0337 13.1973 6.80104C12.4826 8.46476 12.6492 10.4053 12.8175 12.3662C12.9648 14.0824 13.1134 15.8141 12.6737 17.3894C12.1447 19.2845 10.8168 20.5241 9.15414 21.4486C9.06193 21.4641 8.96025 21.4562 8.86249 21.4487C8.84202 21.4471 8.82177 21.4456 8.80174 21.4442C8.78912 21.4434 8.7766 21.4426 8.76419 21.442L8.74818 21.4116C8.65336 21.2314 8.6477 21.2205 8.71629 21.0154C8.80534 20.7495 8.98246 20.4773 9.14935 20.2208C9.21314 20.1229 9.27541 20.0272 9.33071 19.9351C9.90867 18.9721 10.4753 17.9319 10.6525 16.8081C10.874 15.4047 10.7561 13.9605 10.6382 12.5164C10.4886 10.684 10.339 8.85081 10.8828 7.10169C11.5508 4.95254 13.1147 3.83153 14.9973 2.83114Z" fill="#0B0803"/>
</svg>
